<svg width="16" height="16" viewBox="0 0 16 16" fill="none" xmlns="http://www.w3.org/2000/svg">
  <path d="M3 3.75C3 3.33579 3.33579 3 3.75 3H6.25C6.66421 3 7 3.33579 7 3.75V6.25C7 6.66421 6.66421 7 6.25 7H3.75C3.33579 7 3 6.66421 3 6.25V3.75ZM9 3.75C9 3.33579 9.33579 3 9.75 3H12.25C12.6642 3 13 3.33579 13 3.75V6.25C13 6.66421 12.6642 7 12.25 7H9.75C9.33579 7 9 6.66421 9 6.25V3.75ZM6 10.25C6 9.83579 6.33579 9.5 6.75 9.5H9.25C9.66421 9.5 10 9.83579 10 10.25V12.75C10 13.1642 9.66421 13.5 9.25 13.5H6.75C6.33579 13.5 6 13.1642 6 12.75V10.25Z" fill="#C5C5C5"/>
  <path d="M7 5H9M11 7V9.5M5 7V9.5M5 9.5H11" stroke="#C5C5C5" stroke-width="1.2" stroke-linecap="round" stroke-linejoin="round"/>
</svg>